<?xml version="1.0" encoding="iso-8859-1"?>
<!-- Generator: Adobe Illustrator 19.0.0, SVG Export Plug-In . SVG Version: 6.00 Build 0)  -->
<svg version="1.1" id="Capa_1" xmlns="http://www.w3.org/2000/svg" xmlns:xlink="http://www.w3.org/1999/xlink" x="0px" y="0px"
	 viewBox="0 0 469.656 469.656" style="enable-background:new 0 0 469.656 469.656;" xml:space="preserve">
<path style="fill:#763A02;" d="M98.828,85.656h-16V50.912c-0.026-10.613,4.194-20.796,11.72-28.28L117.172,0l11.312,11.312
	L105.86,33.944c-4.486,4.51-7.013,10.607-7.032,16.968L98.828,85.656z"/>
<path style="fill:#FDB62F;" d="M18.828,293.656v-152c0-17.673,14.327-32,32-32h88c17.673,0,32,14.327,32,32v152H18.828z"/>
<path style="fill:#A65A14;" d="M50.828,93.656v16h88v-16c0-8.837-7.163-16-16-16h-56C57.991,77.656,50.828,84.819,50.828,93.656z"/>
<path style="fill:#33BC00;" d="M250.828,277.656v56c0,8.837,7.163,16,16,16h80c8.837,0,16-7.163,16-16v-56c0-17.673,14.327-32,32-32
	c13.255,0,24-10.745,24-24s-10.745-24-24-24c-5.492-0.004-9.941-4.459-9.937-9.951c0.002-2.631,1.046-5.155,2.905-7.017
	l15.032-15.032c8.837-8.834,8.839-23.159,0.005-31.995c-0.002-0.002-0.003-0.003-0.005-0.005
	c-8.834-8.837-23.159-8.839-31.995-0.005c-0.002,0.002-0.003,0.003-0.005,0.005l-7.032,7.032
	c-3.888,3.879-10.184,3.873-14.063-0.015c-1.859-1.863-2.903-4.386-2.905-7.017c0-22.091-17.909-40-40-40s-40,17.909-40,40
	c-0.002,7.321-5.938,13.255-13.259,13.253c-3.512-0.001-6.88-1.395-9.365-3.877l-1.376-1.376
	c-8.834-8.837-23.159-8.839-31.995-0.005c-0.002,0.002-0.003,0.003-0.005,0.005c-8.837,8.834-8.839,23.159-0.005,31.995
	c0.002,0.002,0.003,0.003,0.005,0.005l7.032,7.032c3.879,3.887,3.873,10.184-0.015,14.063c-1.863,1.859-4.386,2.903-7.017,2.905
	c-13.255,0-24,10.745-24,24s10.745,24,24,24h8C236.501,245.656,250.828,259.983,250.828,277.656z"/>
<g>
	<path style="fill:#008100;" d="M298.828,197.656h-16v-8c0-4.418-3.582-8-8-8s-8,3.582-8,8v8h-16v-8c0-13.255,10.745-24,24-24
		s24,10.745,24,24V197.656z"/>
	<path style="fill:#008100;" d="M306.828,245.656c-13.255,0-24-10.745-24-24v-8h16v8c0,4.418,3.582,8,8,8s8-3.582,8-8v-8h16v8
		C330.828,234.911,320.083,245.656,306.828,245.656z"/>
	<path style="fill:#008100;" d="M362.828,197.656h-16v-8c0-4.418-3.582-8-8-8s-8,3.582-8,8v8h-16v-8c0-13.255,10.745-24,24-24
		s24,10.745,24,24V197.656z"/>
</g>
<path style="fill:#FDB62F;" d="M354.828,245.656h96c0,26.51-21.49,48-48,48S354.828,272.166,354.828,245.656z"/>
<path style="fill:#FF6536;" d="M210.828,221.656l80,80l-7.432,7.432c-10.609,10.609-24.997,16.568-40,16.568
	c-31.242,0-56.568-25.326-56.568-56.568c0-15.003,5.959-29.391,16.568-40L210.828,221.656z"/>
<path style="fill:#DE0418;" d="M82.828,293.656l56-112l56,112H82.828z"/>
<path style="fill:#FADBB7;" d="M50.828,277.656v16c0,8.837,7.163,16,16,16h24c8.837,0,16-7.163,16-16v-16c0-8.837,7.163-16,16-16h8
	c8.837,0,16-7.163,16-16c0-17.673-14.327-32-32-32h-64c-17.673,0-32,14.327-32,32c0,8.837,7.163,16,16,16
	S50.828,268.819,50.828,277.656z"/>
<path style="fill:#6CBBC7;" d="M2.828,293.656h464c0,97.202-78.798,176-176,176h-112C81.626,469.656,2.828,390.858,2.828,293.656z"
	/>
<g>
</g>
<g>
</g>
<g>
</g>
<g>
</g>
<g>
</g>
<g>
</g>
<g>
</g>
<g>
</g>
<g>
</g>
<g>
</g>
<g>
</g>
<g>
</g>
<g>
</g>
<g>
</g>
<g>
</g>
</svg>
